<svg width="54" height="87" viewBox="0 0 54 87" fill="none" xmlns="http://www.w3.org/2000/svg">
<path fill-rule="evenodd" clip-rule="evenodd" d="M76.3415 18.5284C72.9821 17.721 69.9517 21.7581 69.3347 24.0025C68.7176 26.2468 67.6344 30.2976 64.4806 30.2155C61.3268 30.1334 61.9576 25.6447 61.9576 25.6447C66.5237 7.58036 57.46 -4.28463 42.1162 -2.88875C26.7724 -1.49287 25.1269 16.6125 25.1269 16.6125C21.9731 20.9644 18.7097 13.3692 16.3923 12.3154C12.4569 10.5363 11.5657 11.3164 7.10925 13.9166C5.28273 15.002 3.89508 16.692 3.18758 18.6927C2.83106 20.2664 4.35312 20.2938 4.87418 19.4864C5.72301 18.2607 6.94397 17.3396 8.35706 16.8589C6.01229 18.4463 4.94273 20.157 4.99758 21.2518C5.05243 22.3466 6.10827 22.7571 6.80759 21.6213C7.48093 20.3577 8.51702 19.3236 9.78308 18.6516C5.90257 22.0592 7.9868 24.8646 9.13861 23.2498C10.7841 20.937 12.5804 20.0885 13.1563 20.6633C13.7322 21.2381 13.7459 22.2918 11.4011 23.2635C9.8791 23.9067 10.5373 24.9057 11.072 25.0289C11.7394 25.1124 12.4172 25.0313 13.0459 24.7927C13.6746 24.5541 14.2351 24.1653 14.6783 23.6603C15.3913 28.0943 15.7616 26.4795 17.2288 31.3377C18.696 36.1959 9.93395 42.2858 4.8879 47.5409C-0.158141 52.7959 -1.0083 61.5818 1.02109 63.3608C3.05048 65.1399 4.14742 60.2406 5.58719 57.6405C7.02696 55.0403 9.44031 56.1762 9.16606 57.3394C8.75278 58.6164 8.24398 59.8607 7.644 61.0617C6.27279 64.6335 3.65379 74.6647 9.01521 78.6471C14.3766 82.6295 14.6509 72.4204 16.8448 69.6423C19.0388 66.8642 22.0006 68.7254 21.5892 71.5856C20.9179 75.5073 21.4733 79.5402 23.1798 83.1358C25.4423 88.3225 29.0897 88.8425 31.0505 81.2609C33.0114 73.6794 36.0143 73.8847 42.8703 68.7528C49.7264 63.6208 56.4179 51.3453 57.7617 50.2642C59.1054 49.1831 65.5638 42.7648 65.5638 42.7648C73.4209 33.9652 74.7372 27.5606 74.3396 26.589C73.9419 25.6173 74.3396 24.6867 75.08 24.7004C75.8205 24.7141 75.5874 26.9995 76.0124 28.0533C76.4375 29.107 77.2191 28.5049 77.5893 27.4374C77.7636 26.3241 77.7029 25.1868 77.4111 24.0983C77.9321 24.8236 78.4258 26.4795 79.0565 27.2048C79.1732 27.2925 79.3139 27.3423 79.4599 27.3475C79.6058 27.3527 79.7498 27.3131 79.8724 27.234C79.9951 27.1548 80.0904 27.0401 80.1456 26.9051C80.2008 26.7702 80.2131 26.6216 80.1809 26.4795C79.9468 25.2824 79.5403 24.1254 78.9742 23.0445C79.627 23.3955 80.1684 23.9217 80.5374 24.5636C81.0859 25.59 81.6755 25.1931 81.6755 25.1931C83.0742 23.9341 79.701 19.3359 76.3415 18.5284ZM19.4501 33.2947C19.3192 33.9003 19.1167 34.4884 18.8468 35.0464L18.3394 35.7853C18.3394 35.7853 17.7635 36.4012 18.2435 34.8684C18.2435 34.8684 18.8331 33.0346 18.9565 32.282C19.0152 31.6767 19.0152 31.0671 18.9565 30.4618C18.9565 30.4618 18.9565 30.1881 19.2444 30.4618C19.4712 31.388 19.5407 32.3456 19.4501 33.2947V33.2947ZM21.6715 32.7336C21.6715 32.7336 21.5207 33.1304 21.2601 32.5967C21.5069 31.6388 21.6303 31.7346 21.6303 31.7346C21.6303 31.7346 21.7126 31.4745 21.8909 31.803C22.0691 32.1314 22.1925 31.5567 21.6715 32.7746V32.7336ZM57.5285 24.5225C57.1502 25.3144 56.5153 25.9559 55.7266 26.3433C54.9379 26.7307 54.0414 26.8413 53.1818 26.6574C51.6872 26.2468 51.7009 25.4668 51.7009 25.4668L52.743 25.85C53.5375 26.1986 54.4286 26.261 55.264 26.0263C56.0995 25.7917 56.8272 25.2746 57.3229 24.5636L57.5285 24.5225ZM50.2886 18.6516C50.5902 16.5988 51.2758 14.2724 53.4012 14.1218H53.5795C56.9115 14.2313 57.6931 20.4307 56.8978 22.8119C56.1985 24.7962 53.648 26.4384 51.5912 24.6594C49.9869 23.2909 50.028 20.458 50.2886 18.679V18.6516ZM40.3199 24.6457C39.5539 24.9772 38.7221 25.1298 37.888 25.0919C37.0539 25.0539 36.2396 24.8264 35.507 24.4267C35.0476 24.215 34.6452 23.8973 34.3329 23.5C34.0206 23.1027 33.8074 22.637 33.7107 22.1413C33.7107 22.1413 33.6147 21.6897 33.9712 21.8676L34.2591 22.1276C34.506 22.6066 34.0124 22.1276 35.0956 23.2498C35.8857 23.9678 36.8783 24.4253 37.9383 24.56C38.9983 24.6947 40.0741 24.5 41.0192 24.0025H41.1975C40.9389 24.2671 40.6433 24.4929 40.3199 24.6731V24.6457ZM41.362 22.8392C38.359 25.0425 34.3689 23.5646 34.8351 19.6917C35.2327 16.2567 37.5775 12.6165 40.9369 12.4386H41.1563C41.8046 12.4652 42.4327 12.6713 42.9703 13.0338C43.5079 13.3963 43.9338 13.901 44.2004 14.4913C45.503 17.4199 43.7479 21.1012 41.362 22.8666V22.8392ZM44.9683 29.066C44.1044 28.5049 45.1603 26.2195 46.4492 26.2332C47.7381 26.2468 46.504 30.0376 44.9683 29.0933V29.066ZM59.0643 45.8028C56.6824 47.9049 54.7112 50.429 53.2504 53.2475L52.9213 53.7813C52.743 54.0413 52.5785 54.315 52.4002 54.5887C51.5501 55.8614 50.7137 57.1478 49.795 58.3521L49.5618 58.4753C49.5618 58.4753 50.2611 57.312 50.7548 56.4635C53.0173 52.5359 54.5256 48.0062 58.982 44.9954C59.1951 44.957 59.4134 44.957 59.6265 44.9954C59.4208 45.9534 59.4619 45.5291 59.0643 45.8302V45.8028Z" fill="#3D3C3C"/>
</svg>
