<svg width="45" height="49" viewBox="0 0 45 49" fill="none" xmlns="http://www.w3.org/2000/svg">
<path fill-rule="evenodd" clip-rule="evenodd" d="M41.8947 11.721C40.0511 11.2814 38.3881 13.4794 38.0495 14.7013C37.7109 15.9233 37.1164 18.1287 35.3857 18.084C33.6549 18.0393 34.0011 15.5954 34.0011 15.5954C36.5069 5.76042 31.5329 -0.699408 23.1125 0.060571C14.6922 0.82055 13.7892 10.6779 13.7892 10.6779C12.0584 13.0473 10.2675 8.9121 8.99578 8.33839C6.83613 7.36979 6.34702 7.79448 3.90142 9.21013C2.89906 9.8011 2.13755 10.7212 1.74928 11.8104C1.55363 12.6673 2.38891 12.6822 2.67485 12.2426C3.14068 11.5753 3.81072 11.0738 4.58619 10.812C3.29943 11.6763 2.71248 12.6077 2.74258 13.2037C2.77267 13.7998 3.3521 14.0233 3.73587 13.4049C4.10539 12.717 4.67398 12.154 5.36876 11.7881C3.23921 13.6433 4.383 15.1707 5.01509 14.2916C5.91808 13.0324 6.90386 12.5704 7.21991 12.8834C7.53596 13.1963 7.54348 13.77 6.25672 14.299C5.42146 14.6492 5.78264 15.1931 6.07611 15.2602C6.44237 15.3056 6.8143 15.2615 7.15933 15.1316C7.50436 15.0017 7.81195 14.79 8.05517 14.5151C8.44646 16.9291 8.64965 16.0499 9.45481 18.695C10.26 21.34 5.45156 24.6556 2.68239 27.5167C-0.0867845 30.3778 -0.553335 35.1612 0.560353 36.1298C1.67404 37.0984 2.27602 34.431 3.06614 33.0154C3.85626 31.5997 5.18066 32.2181 5.03016 32.8514C4.80336 33.5467 4.52414 34.2242 4.19488 34.8781C3.44239 36.8227 2.00513 42.2841 4.94737 44.4523C7.88961 46.6205 8.04013 41.0622 9.24412 39.5497C10.4481 38.0372 12.0735 39.0505 11.8477 40.6077C11.4794 42.7429 11.7841 44.9386 12.7206 46.8962C13.9622 49.72 15.9639 50.0031 17.0399 45.8754C18.116 41.7477 19.7639 41.8594 23.5264 39.0654C27.2889 36.2713 30.961 29.588 31.6985 28.9994C32.4359 28.4108 35.9802 24.9164 35.9802 24.9164C40.2919 20.1255 41.0143 16.6386 40.7961 16.1095C40.5779 15.5805 40.7961 15.0739 41.2024 15.0813C41.6088 15.0888 41.4809 16.3331 41.7141 16.9068C41.9474 17.4805 42.3763 17.1527 42.5795 16.5715C42.6752 15.9654 42.6418 15.3461 42.4817 14.7535C42.7676 15.1484 43.0385 16.0499 43.3847 16.4448C43.4487 16.4926 43.5259 16.5197 43.606 16.5225C43.6861 16.5253 43.7651 16.5038 43.8324 16.4607C43.8997 16.4176 43.9521 16.3551 43.9823 16.2817C44.0126 16.2082 44.0194 16.1273 44.0017 16.0499C43.8732 15.3982 43.6502 14.7683 43.3395 14.1798C43.6978 14.3709 43.9949 14.6574 44.1974 15.0068C44.4984 15.5656 44.8219 15.3496 44.8219 15.3496C45.5895 14.6641 43.7383 12.1606 41.8947 11.721ZM10.6738 19.7604C10.602 20.0902 10.4908 20.4103 10.3427 20.7141L10.0643 21.1165C10.0643 21.1165 9.74828 21.4518 10.0117 20.6173C10.0117 20.6173 10.3352 19.6189 10.4029 19.2091C10.4352 18.8795 10.4352 18.5477 10.4029 18.2181C10.4029 18.2181 10.403 18.0691 10.561 18.2181C10.6854 18.7224 10.7236 19.2437 10.6738 19.7604ZM11.8929 19.4549C11.8929 19.4549 11.8101 19.671 11.6671 19.3804C11.8026 18.8589 11.8703 18.911 11.8703 18.911C11.8703 18.911 11.9155 18.7695 12.0133 18.9483C12.1111 19.1271 12.1788 18.8142 11.8929 19.4773V19.4549ZM31.5705 14.9845C31.3629 15.4156 31.0145 15.7649 30.5817 15.9758C30.1488 16.1867 29.6568 16.2469 29.1852 16.1468C28.3649 15.9233 28.3724 15.4986 28.3724 15.4986L28.9444 15.7072C29.3803 15.897 29.8694 15.931 30.3278 15.8032C30.7863 15.6755 31.1857 15.3939 31.4577 15.0068L31.5705 14.9845ZM27.5974 11.7881C27.7629 10.6705 28.1392 9.40385 29.3055 9.32189H29.4034C31.2319 9.3815 31.6608 12.7567 31.2244 14.0531C30.8406 15.1335 29.441 16.0276 28.3123 15.059C27.4318 14.3139 27.4544 12.7716 27.5974 11.803V11.7881ZM22.1268 15.0515C21.7064 15.232 21.2499 15.3151 20.7922 15.2945C20.3345 15.2738 19.8876 15.1499 19.4855 14.9323C19.2334 14.817 19.0126 14.6441 18.8412 14.4278C18.6699 14.2114 18.5528 13.9579 18.4998 13.688C18.4998 13.688 18.4471 13.4422 18.6427 13.539L18.8008 13.6806C18.9362 13.9414 18.6653 13.6806 19.2598 14.2916C19.6934 14.6825 20.2381 14.9316 20.8198 15.0049C21.4015 15.0782 21.9919 14.9722 22.5105 14.7013H22.6084C22.4664 14.8454 22.3043 14.9684 22.1268 15.0664V15.0515ZM22.6987 14.068C21.0507 15.2676 18.861 14.4629 19.1168 12.3544C19.335 10.4842 20.6218 8.5023 22.4654 8.40544H22.5858C22.9415 8.41992 23.2862 8.53213 23.5812 8.72951C23.8763 8.92689 24.11 9.20165 24.2563 9.52306C24.9712 11.1175 24.008 13.1218 22.6987 14.0829V14.068ZM24.6777 17.4581C24.2036 17.1527 24.7831 15.9084 25.4904 15.9158C26.1978 15.9233 25.5205 17.9871 24.6777 17.473V17.4581ZM32.4133 26.5704C31.1062 27.7149 30.0245 29.0891 29.2228 30.6237L29.0422 30.9142C28.9444 31.0558 28.8541 31.2048 28.7562 31.3538C28.2897 32.0468 27.8307 32.7471 27.3265 33.4028L27.1986 33.4699C27.1986 33.4699 27.5823 32.8365 27.8532 32.3746C29.0948 30.2362 29.9226 27.77 32.3682 26.1308C32.4851 26.1099 32.6049 26.1099 32.7219 26.1308C32.609 26.6524 32.6315 26.4214 32.4133 26.5853V26.5704Z" fill="#EA6623"/>
</svg>
