<svg width="139" height="116" viewBox="0 0 139 116" fill="none" xmlns="http://www.w3.org/2000/svg">
<path d="M56.5 1C60.5 16 64.5004 29.5 83.7151 68C97.2303 95.0802 130.667 108.667 135.5 111C135.5 111 120 82 110 58.5C100 35 92 1 92 1L80.5 94C62.5 76.5 38.5 61 30 1" stroke="#575757"/>
<path d="M104 92C116.5 95 120.5 89 118.5 77.5" stroke="#575757"/>
<path d="M88.5 75.5C98.5 81 113.1 72.6 109.5 57" stroke="#575757"/>
<path d="M42 45.4998C48.5 53 61 56.5 71.5 41.4998C80 49.5 83 45.4998 87 41.4998C92.5 44.3332 100 45.4998 102.5 38.5" stroke="#575757"/>
<path d="M34 59C40.5 65.5 53 74.5 57.5 71.5C67.5 76 78.5 80 83.5 68.5" stroke="#575757"/>
<path d="M6.5 8C11.3333 36.1667 44.4 96.4 138 112C98.5 113.93 94 110.566 60 113M6.5 8L1 114.5C5.5 112 16.9419 111.849 26 112.5M6.5 8L26 112.5M6.5 8C6.5 38 41.5 89.3788 60 113M26 112.5C37.5312 113.329 48.0506 112.223 60 113" stroke="#575757"/>
<path d="M2 84.4997C5 79.6663 13.8 72.8997 21 84.4997C24 72.5 28.5 70.5 36.5 79.499C37.1667 75.6657 40.7 69.299 49.5 74.499" stroke="#575757"/>
<path d="M1.5 101.5C6.66667 98.1666 18 93.3007 24 100.501C24 86.5 38 86.4998 45.5 93C46.5 87.3333 50.5 77.4002 60.5 83.0002" stroke="#575757"/>
<path d="M1.5 107.5C6 101.5 21.7 108.9 26.5 112.5C31 107.501 40 94.5008 56.5 108.002C53.5 102.502 63.5 86.5014 84 96.0016" stroke="#575757"/>
</svg>
