<svg width="32" height="80" viewBox="0 0 32 80" fill="none" xmlns="http://www.w3.org/2000/svg">
<g opacity="0.2">
<path d="M14.1666 62.4041C14.1666 62.4041 14.1666 56.1217 18.1352 57.584C22.1038 59.0463 19.701 63.3519 19.701 63.3519C19.701 63.3519 24.2096 72.7756 13.8697 74.8607C13.8157 74.8607 7.5523 69.851 14.1666 62.4041Z" fill="white"/>
<path d="M19.8903 63.726C22.2022 61.8113 24.675 60.1067 27.2801 58.6317C28.6519 58.3799 30.067 58.6423 31.263 59.3703L31.8141 58.3515C30.3035 57.4519 28.5189 57.1525 26.8041 57.5109C24.0901 59.0623 21.5091 60.8431 19.0887 62.8345L19.8903 63.726Z" fill="white"/>
<path d="M30.6476 68.4994L31.8141 68.1519C31.8141 67.9113 30.1174 62.2437 26.7505 62.1367C24.0875 62.3479 21.488 63.0645 19.0887 64.2487L19.619 65.3715C21.833 64.2617 24.2342 63.5816 26.6974 63.3665C28.7918 63.4467 30.25 67.1092 30.6476 68.4994Z" fill="white"/>
<path d="M29.1073 76.4503L30.2233 76.0756C29.8936 75.1263 27.0021 66.7827 23.1722 66.9076C19.9256 66.9076 19.1393 67.707 19.0886 68.2816L20.23 68.4315C20.245 68.4888 20.245 68.549 20.23 68.6063C20.23 68.6063 20.6865 68.1317 23.2483 68.0568C25.81 67.9818 27.9659 73.1778 29.1073 76.4503Z" fill="white"/>
<path d="M25.4116 79.6319C25.4116 79.3345 26.0987 72.4942 21.7217 71.2235L17.8028 70.0879L17.4975 71.2775L21.4164 72.4401C24.8263 73.4135 24.241 79.4427 24.241 79.4968L25.4116 79.6319Z" fill="white"/>
<path d="M13.1046 63.7254H14.3161C13.1573 53.3186 7.02107 51.0809 6.75772 51L6.3627 52.1863C6.59972 52.1324 12.0512 54.1544 13.1046 63.7254Z" fill="white"/>
<path d="M13.1829 65.3166L14.3161 64.7791C12.9236 62.3447 11.2371 60.0508 9.28608 57.9374C6.99219 55.9093 1.13314 59.8433 9.53674e-06 60.6496L0.801429 61.5293C3.28878 59.77 7.26854 57.7664 8.40166 58.7437C10.2508 60.781 11.8533 62.984 13.1829 65.3166Z" fill="white"/>
<path d="M0.878177 66.9087C2.95374 65.2105 6.89194 62.766 8.56835 63.5122C10.349 64.4062 11.9888 65.5413 13.438 66.883L14.3161 65.9824C12.7431 64.5254 10.9482 63.3105 8.99412 62.3801C6.06705 61.0678 0.612034 65.4678 9.53674e-06 65.9567L0.878177 66.9087Z" fill="white"/>
<path d="M0.843545 71.6783C1.06828 71.4285 6.46182 65.9332 12.0801 69.5863L12.7262 68.3374C6.43376 64.1223 0.0851126 70.5543 0.00083828 70.6167L0.843545 71.6783Z" fill="white"/>
<path d="M18.1612 0.300066C18.2968 0.352537 18.4441 0.400106 18.6012 0.442204V58H17.6012V0L18.1612 0.300066Z" fill="white"/>
</g>
</svg>
